<svg xmlns="http://www.w3.org/2000/svg" xmlns:xlink="http://www.w3.org/1999/xlink" width="249" zoomAndPan="magnify" viewBox="0 0 186.75 66.75" height="89" preserveAspectRatio="xMidYMid meet" version="1.0"><defs><g/><clipPath id="0fbe47c40c"><path d="M 0.222656 50 L 45 50 L 45 55.40625 L 0.222656 55.40625 Z M 0.222656 50 " clip-rule="nonzero"/></clipPath><clipPath id="7bf546532d"><path d="M 1 10.574219 L 44 10.574219 L 44 22 L 1 22 Z M 1 10.574219 " clip-rule="nonzero"/></clipPath></defs><g fill="#373643" fill-opacity="1"><g transform="translate(52.459458, 26.169635)"><g><path d="M 7.4375 0 L 4.359375 0 L 4.359375 -11.984375 L 0.40625 -11.984375 L 0.40625 -14.546875 L 11.390625 -14.546875 L 11.390625 -11.984375 L 7.4375 -11.984375 Z M 7.4375 0 "/></g></g></g><g fill="#373643" fill-opacity="1"><g transform="translate(63.476607, 26.169635)"><g><path d="M 14.734375 0 L 10.8125 0 L 4.484375 -11 L 4.390625 -11 C 4.421875 -10.539062 4.445312 -10.078125 4.46875 -9.609375 C 4.488281 -9.148438 4.507812 -8.691406 4.53125 -8.234375 C 4.550781 -7.773438 4.570312 -7.3125 4.59375 -6.84375 L 4.59375 0 L 1.828125 0 L 1.828125 -14.546875 L 5.71875 -14.546875 L 12.03125 -3.65625 L 12.109375 -3.65625 C 12.097656 -4.101562 12.082031 -4.546875 12.0625 -4.984375 C 12.039062 -5.429688 12.019531 -5.878906 12 -6.328125 C 11.988281 -6.773438 11.972656 -7.21875 11.953125 -7.65625 L 11.953125 -14.546875 L 14.734375 -14.546875 Z M 14.734375 0 "/></g></g></g><g fill="#373643" fill-opacity="1"><g transform="translate(79.255982, 26.169635)"><g><path d="M 7.4375 0 L 4.359375 0 L 4.359375 -11.984375 L 0.40625 -11.984375 L 0.40625 -14.546875 L 11.390625 -14.546875 L 11.390625 -11.984375 L 7.4375 -11.984375 Z M 7.4375 0 "/></g></g></g><g fill="#373643" fill-opacity="1"><g transform="translate(90.27313, 26.169635)"><g/></g></g><g fill="#373643" fill-opacity="1"><g transform="translate(94.788203, 26.169635)"><g><path d="M 7.984375 0 L 4.484375 -11.40625 L 4.390625 -11.40625 C 4.410156 -11.132812 4.429688 -10.722656 4.453125 -10.171875 C 4.484375 -9.628906 4.515625 -9.050781 4.546875 -8.4375 C 4.578125 -7.820312 4.59375 -7.265625 4.59375 -6.765625 L 4.59375 0 L 1.828125 0 L 1.828125 -14.546875 L 6.03125 -14.546875 L 9.46875 -3.421875 L 9.53125 -3.421875 L 13.1875 -14.546875 L 17.375 -14.546875 L 17.375 0 L 14.5 0 L 14.5 -6.890625 C 14.5 -7.347656 14.507812 -7.875 14.53125 -8.46875 C 14.550781 -9.0625 14.570312 -9.628906 14.59375 -10.171875 C 14.625 -10.710938 14.644531 -11.117188 14.65625 -11.390625 L 14.5625 -11.390625 L 10.8125 0 Z M 7.984375 0 "/></g></g></g><g fill="#373643" fill-opacity="1"><g transform="translate(113.212151, 26.169635)"><g><path d="M 6.140625 -11.34375 C 7.640625 -11.34375 8.785156 -11.019531 9.578125 -10.375 C 10.378906 -9.726562 10.78125 -8.738281 10.78125 -7.40625 L 10.78125 0 L 8.65625 0 L 8.0625 -1.515625 L 7.984375 -1.515625 C 7.671875 -1.117188 7.347656 -0.789062 7.015625 -0.53125 C 6.679688 -0.28125 6.296875 -0.0976562 5.859375 0.015625 C 5.429688 0.140625 4.910156 0.203125 4.296875 0.203125 C 3.640625 0.203125 3.050781 0.078125 2.53125 -0.171875 C 2.007812 -0.429688 1.597656 -0.820312 1.296875 -1.34375 C 1.003906 -1.863281 0.859375 -2.523438 0.859375 -3.328125 C 0.859375 -4.503906 1.269531 -5.375 2.09375 -5.9375 C 2.925781 -6.5 4.171875 -6.804688 5.828125 -6.859375 L 7.765625 -6.921875 L 7.765625 -7.40625 C 7.765625 -7.988281 7.609375 -8.414062 7.296875 -8.6875 C 6.992188 -8.96875 6.570312 -9.109375 6.03125 -9.109375 C 5.488281 -9.109375 4.957031 -9.03125 4.4375 -8.875 C 3.925781 -8.71875 3.410156 -8.523438 2.890625 -8.296875 L 1.890625 -10.34375 C 2.484375 -10.65625 3.144531 -10.898438 3.875 -11.078125 C 4.601562 -11.253906 5.359375 -11.34375 6.140625 -11.34375 Z M 7.765625 -5.15625 L 6.59375 -5.109375 C 5.601562 -5.085938 4.914062 -4.910156 4.53125 -4.578125 C 4.15625 -4.253906 3.96875 -3.828125 3.96875 -3.296875 C 3.96875 -2.835938 4.101562 -2.507812 4.375 -2.3125 C 4.644531 -2.113281 5 -2.015625 5.4375 -2.015625 C 6.09375 -2.015625 6.644531 -2.207031 7.09375 -2.59375 C 7.539062 -2.976562 7.765625 -3.523438 7.765625 -4.234375 Z M 7.765625 -5.15625 "/></g></g></g><g fill="#373643" fill-opacity="1"><g transform="translate(124.736345, 26.169635)"><g><path d="M 9.359375 -3.296875 C 9.359375 -2.546875 9.175781 -1.910156 8.8125 -1.390625 C 8.457031 -0.867188 7.925781 -0.472656 7.21875 -0.203125 C 6.519531 0.0664062 5.648438 0.203125 4.609375 0.203125 C 3.828125 0.203125 3.160156 0.148438 2.609375 0.046875 C 2.054688 -0.046875 1.5 -0.210938 0.9375 -0.453125 L 0.9375 -2.953125 C 1.539062 -2.679688 2.1875 -2.457031 2.875 -2.28125 C 3.570312 -2.101562 4.179688 -2.015625 4.703125 -2.015625 C 5.296875 -2.015625 5.71875 -2.101562 5.96875 -2.28125 C 6.226562 -2.457031 6.359375 -2.6875 6.359375 -2.96875 C 6.359375 -3.15625 6.304688 -3.320312 6.203125 -3.46875 C 6.097656 -3.625 5.875 -3.796875 5.53125 -3.984375 C 5.195312 -4.171875 4.671875 -4.414062 3.953125 -4.71875 C 3.253906 -5.007812 2.679688 -5.304688 2.234375 -5.609375 C 1.785156 -5.910156 1.453125 -6.265625 1.234375 -6.671875 C 1.023438 -7.078125 0.921875 -7.597656 0.921875 -8.234375 C 0.921875 -9.253906 1.316406 -10.023438 2.109375 -10.546875 C 2.910156 -11.066406 3.984375 -11.328125 5.328125 -11.328125 C 6.015625 -11.328125 6.671875 -11.253906 7.296875 -11.109375 C 7.921875 -10.972656 8.566406 -10.753906 9.234375 -10.453125 L 8.3125 -8.265625 C 7.757812 -8.503906 7.238281 -8.695312 6.75 -8.84375 C 6.269531 -9 5.773438 -9.078125 5.265625 -9.078125 C 4.828125 -9.078125 4.492188 -9.015625 4.265625 -8.890625 C 4.046875 -8.773438 3.9375 -8.597656 3.9375 -8.359375 C 3.9375 -8.179688 3.992188 -8.019531 4.109375 -7.875 C 4.222656 -7.738281 4.445312 -7.582031 4.78125 -7.40625 C 5.113281 -7.238281 5.601562 -7.023438 6.25 -6.765625 C 6.882812 -6.503906 7.429688 -6.234375 7.890625 -5.953125 C 8.359375 -5.671875 8.71875 -5.320312 8.96875 -4.90625 C 9.226562 -4.488281 9.359375 -3.953125 9.359375 -3.296875 Z M 9.359375 -3.296875 "/></g></g></g><g fill="#373643" fill-opacity="1"><g transform="translate(134.083238, 26.169635)"><g><path d="M 9.359375 -3.296875 C 9.359375 -2.546875 9.175781 -1.910156 8.8125 -1.390625 C 8.457031 -0.867188 7.925781 -0.472656 7.21875 -0.203125 C 6.519531 0.0664062 5.648438 0.203125 4.609375 0.203125 C 3.828125 0.203125 3.160156 0.148438 2.609375 0.046875 C 2.054688 -0.046875 1.5 -0.210938 0.9375 -0.453125 L 0.9375 -2.953125 C 1.539062 -2.679688 2.1875 -2.457031 2.875 -2.28125 C 3.570312 -2.101562 4.179688 -2.015625 4.703125 -2.015625 C 5.296875 -2.015625 5.71875 -2.101562 5.96875 -2.28125 C 6.226562 -2.457031 6.359375 -2.6875 6.359375 -2.96875 C 6.359375 -3.15625 6.304688 -3.320312 6.203125 -3.46875 C 6.097656 -3.625 5.875 -3.796875 5.53125 -3.984375 C 5.195312 -4.171875 4.671875 -4.414062 3.953125 -4.71875 C 3.253906 -5.007812 2.679688 -5.304688 2.234375 -5.609375 C 1.785156 -5.910156 1.453125 -6.265625 1.234375 -6.671875 C 1.023438 -7.078125 0.921875 -7.597656 0.921875 -8.234375 C 0.921875 -9.253906 1.316406 -10.023438 2.109375 -10.546875 C 2.910156 -11.066406 3.984375 -11.328125 5.328125 -11.328125 C 6.015625 -11.328125 6.671875 -11.253906 7.296875 -11.109375 C 7.921875 -10.972656 8.566406 -10.753906 9.234375 -10.453125 L 8.3125 -8.265625 C 7.757812 -8.503906 7.238281 -8.695312 6.75 -8.84375 C 6.269531 -9 5.773438 -9.078125 5.265625 -9.078125 C 4.828125 -9.078125 4.492188 -9.015625 4.265625 -8.890625 C 4.046875 -8.773438 3.9375 -8.597656 3.9375 -8.359375 C 3.9375 -8.179688 3.992188 -8.019531 4.109375 -7.875 C 4.222656 -7.738281 4.445312 -7.582031 4.78125 -7.40625 C 5.113281 -7.238281 5.601562 -7.023438 6.25 -6.765625 C 6.882812 -6.503906 7.429688 -6.234375 7.890625 -5.953125 C 8.359375 -5.671875 8.71875 -5.320312 8.96875 -4.90625 C 9.226562 -4.488281 9.359375 -3.953125 9.359375 -3.296875 Z M 9.359375 -3.296875 "/></g></g></g><g fill="#373643" fill-opacity="1"><g transform="translate(143.431236, 26.169635)"><g/></g></g><g fill="#373643" fill-opacity="1"><g transform="translate(147.94631, 26.169635)"><g/></g></g><g fill="#373643" fill-opacity="1"><g transform="translate(45.349369, 54.563291)"><g/></g></g><g fill="#373643" fill-opacity="1"><g transform="translate(49.864443, 54.563291)"><g/></g></g><g fill="#373643" fill-opacity="1"><g transform="translate(54.385837, 54.563291)"><g><path d="M 7.4375 0 L 4.359375 0 L 4.359375 -11.984375 L 0.40625 -11.984375 L 0.40625 -14.546875 L 11.390625 -14.546875 L 11.390625 -11.984375 L 7.4375 -11.984375 Z M 7.4375 0 "/></g></g></g><g fill="#373643" fill-opacity="1"><g transform="translate(65.402986, 54.563291)"><g><path d="M 11.703125 -5.578125 C 11.703125 -4.648438 11.578125 -3.828125 11.328125 -3.109375 C 11.078125 -2.398438 10.710938 -1.796875 10.234375 -1.296875 C 9.765625 -0.804688 9.195312 -0.429688 8.53125 -0.171875 C 7.863281 0.078125 7.113281 0.203125 6.28125 0.203125 C 5.5 0.203125 4.78125 0.078125 4.125 -0.171875 C 3.46875 -0.429688 2.898438 -0.804688 2.421875 -1.296875 C 1.941406 -1.796875 1.570312 -2.398438 1.3125 -3.109375 C 1.050781 -3.828125 0.921875 -4.648438 0.921875 -5.578125 C 0.921875 -6.816406 1.140625 -7.863281 1.578125 -8.71875 C 2.015625 -9.570312 2.632812 -10.21875 3.4375 -10.65625 C 4.25 -11.101562 5.21875 -11.328125 6.34375 -11.328125 C 7.382812 -11.328125 8.304688 -11.101562 9.109375 -10.65625 C 9.910156 -10.21875 10.539062 -9.570312 11 -8.71875 C 11.46875 -7.863281 11.703125 -6.816406 11.703125 -5.578125 Z M 4.015625 -5.578125 C 4.015625 -4.847656 4.09375 -4.234375 4.25 -3.734375 C 4.40625 -3.242188 4.648438 -2.867188 4.984375 -2.609375 C 5.328125 -2.359375 5.769531 -2.234375 6.3125 -2.234375 C 6.851562 -2.234375 7.289062 -2.359375 7.625 -2.609375 C 7.957031 -2.867188 8.203125 -3.242188 8.359375 -3.734375 C 8.515625 -4.234375 8.59375 -4.847656 8.59375 -5.578125 C 8.59375 -6.316406 8.515625 -6.925781 8.359375 -7.40625 C 8.203125 -7.894531 7.953125 -8.265625 7.609375 -8.515625 C 7.273438 -8.765625 6.835938 -8.890625 6.296875 -8.890625 C 5.492188 -8.890625 4.910156 -8.613281 4.546875 -8.0625 C 4.191406 -7.507812 4.015625 -6.679688 4.015625 -5.578125 Z M 4.015625 -5.578125 "/></g></g></g><g fill="#373643" fill-opacity="1"><g transform="translate(77.23538, 54.563291)"><g><path d="M 7.796875 -11.328125 C 7.953125 -11.328125 8.128906 -11.316406 8.328125 -11.296875 C 8.535156 -11.285156 8.703125 -11.265625 8.828125 -11.234375 L 8.59375 -8.390625 C 8.5 -8.429688 8.359375 -8.457031 8.171875 -8.46875 C 7.992188 -8.488281 7.835938 -8.5 7.703125 -8.5 C 7.304688 -8.5 6.925781 -8.445312 6.5625 -8.34375 C 6.195312 -8.25 5.867188 -8.085938 5.578125 -7.859375 C 5.285156 -7.640625 5.050781 -7.347656 4.875 -6.984375 C 4.707031 -6.628906 4.625 -6.1875 4.625 -5.65625 L 4.625 0 L 1.59375 0 L 1.59375 -11.125 L 3.890625 -11.125 L 4.34375 -9.25 L 4.484375 -9.25 C 4.703125 -9.625 4.972656 -9.96875 5.296875 -10.28125 C 5.628906 -10.601562 6.003906 -10.859375 6.421875 -11.046875 C 6.847656 -11.234375 7.304688 -11.328125 7.796875 -11.328125 Z M 7.796875 -11.328125 "/></g></g></g><g fill="#373643" fill-opacity="1"><g transform="translate(85.707375, 54.563291)"><g><path d="M 6.28125 -2.21875 C 6.613281 -2.21875 6.9375 -2.25 7.25 -2.3125 C 7.5625 -2.382812 7.875 -2.46875 8.1875 -2.5625 L 8.1875 -0.3125 C 7.863281 -0.164062 7.457031 -0.046875 6.96875 0.046875 C 6.488281 0.148438 5.96875 0.203125 5.40625 0.203125 C 4.738281 0.203125 4.140625 0.09375 3.609375 -0.125 C 3.085938 -0.34375 2.675781 -0.71875 2.375 -1.25 C 2.070312 -1.78125 1.921875 -2.523438 1.921875 -3.484375 L 1.921875 -8.84375 L 0.46875 -8.84375 L 0.46875 -10.125 L 2.140625 -11.140625 L 3.015625 -13.484375 L 4.953125 -13.484375 L 4.953125 -11.125 L 8.0625 -11.125 L 8.0625 -8.84375 L 4.953125 -8.84375 L 4.953125 -3.484375 C 4.953125 -3.054688 5.070312 -2.738281 5.3125 -2.53125 C 5.5625 -2.320312 5.882812 -2.21875 6.28125 -2.21875 Z M 6.28125 -2.21875 "/></g></g></g><g fill="#373643" fill-opacity="1"><g transform="translate(93.771746, 54.563291)"><g/></g></g><g fill="#373643" fill-opacity="1"><g transform="translate(98.286818, 54.563291)"><g><path d="M 1.828125 0 L 1.828125 -14.546875 L 4.921875 -14.546875 L 4.921875 0 Z M 1.828125 0 "/></g></g></g><g fill="#373643" fill-opacity="1"><g transform="translate(104.253428, 54.563291)"><g><path d="M 7.90625 -11.328125 C 9.09375 -11.328125 10.046875 -11.003906 10.765625 -10.359375 C 11.492188 -9.710938 11.859375 -8.675781 11.859375 -7.25 L 11.859375 0 L 8.828125 0 L 8.828125 -6.5 C 8.828125 -7.289062 8.679688 -7.890625 8.390625 -8.296875 C 8.097656 -8.703125 7.644531 -8.90625 7.03125 -8.90625 C 6.101562 -8.90625 5.46875 -8.585938 5.125 -7.953125 C 4.789062 -7.328125 4.625 -6.421875 4.625 -5.234375 L 4.625 0 L 1.59375 0 L 1.59375 -11.125 L 3.90625 -11.125 L 4.3125 -9.703125 L 4.484375 -9.703125 C 4.722656 -10.085938 5.019531 -10.398438 5.375 -10.640625 C 5.726562 -10.878906 6.125 -11.050781 6.5625 -11.15625 C 7 -11.269531 7.445312 -11.328125 7.90625 -11.328125 Z M 7.90625 -11.328125 "/></g></g></g><g fill="#373643" fill-opacity="1"><g transform="translate(116.861301, 54.563291)"><g><path d="M 6.28125 -2.21875 C 6.613281 -2.21875 6.9375 -2.25 7.25 -2.3125 C 7.5625 -2.382812 7.875 -2.46875 8.1875 -2.5625 L 8.1875 -0.3125 C 7.863281 -0.164062 7.457031 -0.046875 6.96875 0.046875 C 6.488281 0.148438 5.96875 0.203125 5.40625 0.203125 C 4.738281 0.203125 4.140625 0.09375 3.609375 -0.125 C 3.085938 -0.34375 2.675781 -0.71875 2.375 -1.25 C 2.070312 -1.78125 1.921875 -2.523438 1.921875 -3.484375 L 1.921875 -8.84375 L 0.46875 -8.84375 L 0.46875 -10.125 L 2.140625 -11.140625 L 3.015625 -13.484375 L 4.953125 -13.484375 L 4.953125 -11.125 L 8.0625 -11.125 L 8.0625 -8.84375 L 4.953125 -8.84375 L 4.953125 -3.484375 C 4.953125 -3.054688 5.070312 -2.738281 5.3125 -2.53125 C 5.5625 -2.320312 5.882812 -2.21875 6.28125 -2.21875 Z M 6.28125 -2.21875 "/></g></g></g><g fill="#373643" fill-opacity="1"><g transform="translate(124.925675, 54.563291)"><g><path d="M 6.140625 -11.34375 C 7.640625 -11.34375 8.785156 -11.019531 9.578125 -10.375 C 10.378906 -9.726562 10.78125 -8.738281 10.78125 -7.40625 L 10.78125 0 L 8.65625 0 L 8.0625 -1.515625 L 7.984375 -1.515625 C 7.671875 -1.117188 7.347656 -0.789062 7.015625 -0.53125 C 6.679688 -0.28125 6.296875 -0.0976562 5.859375 0.015625 C 5.429688 0.140625 4.910156 0.203125 4.296875 0.203125 C 3.640625 0.203125 3.050781 0.078125 2.53125 -0.171875 C 2.007812 -0.429688 1.597656 -0.820312 1.296875 -1.34375 C 1.003906 -1.863281 0.859375 -2.523438 0.859375 -3.328125 C 0.859375 -4.503906 1.269531 -5.375 2.09375 -5.9375 C 2.925781 -6.5 4.171875 -6.804688 5.828125 -6.859375 L 7.765625 -6.921875 L 7.765625 -7.40625 C 7.765625 -7.988281 7.609375 -8.414062 7.296875 -8.6875 C 6.992188 -8.96875 6.570312 -9.109375 6.03125 -9.109375 C 5.488281 -9.109375 4.957031 -9.03125 4.4375 -8.875 C 3.925781 -8.71875 3.410156 -8.523438 2.890625 -8.296875 L 1.890625 -10.34375 C 2.484375 -10.65625 3.144531 -10.898438 3.875 -11.078125 C 4.601562 -11.253906 5.359375 -11.34375 6.140625 -11.34375 Z M 7.765625 -5.15625 L 6.59375 -5.109375 C 5.601562 -5.085938 4.914062 -4.910156 4.53125 -4.578125 C 4.15625 -4.253906 3.96875 -3.828125 3.96875 -3.296875 C 3.96875 -2.835938 4.101562 -2.507812 4.375 -2.3125 C 4.644531 -2.113281 5 -2.015625 5.4375 -2.015625 C 6.09375 -2.015625 6.644531 -2.207031 7.09375 -2.59375 C 7.539062 -2.976562 7.765625 -3.523438 7.765625 -4.234375 Z M 7.765625 -5.15625 "/></g></g></g><g fill="#373643" fill-opacity="1"><g transform="translate(136.449869, 54.563291)"><g><path d="M 4.625 -15.484375 L 4.625 -8.5625 C 4.625 -8.132812 4.609375 -7.710938 4.578125 -7.296875 C 4.546875 -6.878906 4.507812 -6.460938 4.46875 -6.046875 L 4.5 -6.046875 C 4.707031 -6.335938 4.921875 -6.625 5.140625 -6.90625 C 5.359375 -7.195312 5.585938 -7.472656 5.828125 -7.734375 L 8.9375 -11.125 L 12.359375 -11.125 L 7.953125 -6.296875 L 12.640625 0 L 9.140625 0 L 5.921875 -4.5 L 4.625 -3.46875 L 4.625 0 L 1.59375 0 L 1.59375 -15.484375 Z M 4.625 -15.484375 "/></g></g></g><g fill="#373643" fill-opacity="1"><g transform="translate(148.302149, 54.563291)"><g><path d="M 6.171875 -11.328125 C 7.203125 -11.328125 8.085938 -11.128906 8.828125 -10.734375 C 9.578125 -10.335938 10.148438 -9.765625 10.546875 -9.015625 C 10.953125 -8.273438 11.15625 -7.363281 11.15625 -6.28125 L 11.15625 -4.8125 L 3.984375 -4.8125 C 4.023438 -3.945312 4.285156 -3.269531 4.765625 -2.78125 C 5.242188 -2.300781 5.910156 -2.0625 6.765625 -2.0625 C 7.472656 -2.0625 8.117188 -2.132812 8.703125 -2.28125 C 9.296875 -2.425781 9.90625 -2.644531 10.53125 -2.9375 L 10.53125 -0.59375 C 9.976562 -0.3125 9.398438 -0.109375 8.796875 0.015625 C 8.203125 0.140625 7.476562 0.203125 6.625 0.203125 C 5.507812 0.203125 4.519531 0 3.65625 -0.40625 C 2.800781 -0.820312 2.128906 -1.453125 1.640625 -2.296875 C 1.160156 -3.140625 0.921875 -4.203125 0.921875 -5.484375 C 0.921875 -6.785156 1.140625 -7.867188 1.578125 -8.734375 C 2.015625 -9.597656 2.628906 -10.242188 3.421875 -10.671875 C 4.210938 -11.109375 5.128906 -11.328125 6.171875 -11.328125 Z M 6.203125 -9.171875 C 5.609375 -9.171875 5.117188 -8.976562 4.734375 -8.59375 C 4.347656 -8.21875 4.125 -7.628906 4.0625 -6.828125 L 8.3125 -6.828125 C 8.3125 -7.273438 8.234375 -7.675781 8.078125 -8.03125 C 7.921875 -8.382812 7.6875 -8.660156 7.375 -8.859375 C 7.070312 -9.066406 6.679688 -9.171875 6.203125 -9.171875 Z M 6.203125 -9.171875 "/></g></g></g><path fill="#000000" d="M 10.367188 48.503906 L 6.777344 48.503906 L 6.777344 26.03125 L 10.367188 26.03125 L 10.367188 48.503906 " fill-opacity="1" fill-rule="nonzero"/><path fill="#000000" d="M 17.195312 48.503906 L 13.601562 48.503906 L 13.601562 26.03125 L 17.195312 26.03125 L 17.195312 48.503906 " fill-opacity="1" fill-rule="nonzero"/><path fill="#000000" d="M 24.019531 48.503906 L 20.429688 48.503906 L 20.429688 26.03125 L 24.019531 26.03125 L 24.019531 48.503906 " fill-opacity="1" fill-rule="nonzero"/><path fill="#000000" d="M 30.847656 48.503906 L 27.257812 48.503906 L 27.257812 26.03125 L 30.847656 26.03125 L 30.847656 48.503906 " fill-opacity="1" fill-rule="nonzero"/><path fill="#000000" d="M 37.671875 48.503906 L 34.082031 48.503906 L 34.082031 26.03125 L 37.671875 26.03125 L 37.671875 48.503906 " fill-opacity="1" fill-rule="nonzero"/><g clip-path="url(#0fbe47c40c)"><path fill="#000000" d="M 40.101562 51.902344 L 40.101562 50.105469 L 4.863281 50.105469 L 4.863281 51.902344 L 0.222656 51.902344 L 0.222656 55.042969 L 44.738281 55.042969 L 44.738281 51.902344 L 40.101562 51.902344 " fill-opacity="1" fill-rule="nonzero"/></g><path fill="#000000" d="M 3.773438 24.414062 L 41.191406 24.414062 L 41.191406 22.648438 L 3.773438 22.648438 L 3.773438 24.414062 " fill-opacity="1" fill-rule="nonzero"/><g clip-path="url(#7bf546532d)"><path fill="#000000" d="M 43.730469 21.046875 L 22.511719 10.574219 L 22.480469 10.574219 L 1.265625 21.046875 L 22.496094 20.972656 L 43.730469 21.046875 " fill-opacity="1" fill-rule="nonzero"/></g></svg>